<?xml version="1.0" standalone="no"?>
<!DOCTYPE svg >
<svg version="1.0" xmlns="http://www.w3.org/2000/svg" 
 width="220.000000pt" height="229.000000pt" viewBox="0 0 220.000000 229.000000"
 preserveAspectRatio="xMidYMid meet">

 	 <linearGradient id="MyGradient">
          <stop offset="5%" stop-color="#0756ce" />
          <stop offset="95%" stop-color="#d04329" />
	</linearGradient>

<g transform="translate(0.000000,229.000000) scale(0.100000,-0.100000)"
fill="#7f7f7f" stroke="none">
<path d="M572 2082 c-17 -17 -18 -37 -17 -212 1 -226 -1 -221 101 -216 35 1
69 7 75 13 7 7 10 80 10 209 -1 230 1 224 -93 224 -43 0 -63 -5 -76 -18z"/>
<path d="M1468 2089 c-16 -9 -18 -30 -18 -208 0 -234 -1 -231 98 -231 93 0 92
-3 92 225 0 189 -1 194 -22 209 -26 18 -123 21 -150 5z"/>
<path d="M207 1902 c-16 -17 -17 -89 -17 -824 0 -778 1 -807 19 -829 l19 -24
856 0 c471 0 856 3 856 7 0 4 9 5 20 3 11 -2 19 1 17 8 -1 7 3 11 9 10 6 -1
11 3 11 10 1 7 2 374 2 816 1 740 0 805 -15 822 -15 17 -33 19 -141 19 l-123
0 0 -142 c0 -164 -11 -201 -70 -230 -44 -22 -156 -24 -205 -4 -64 27 -75 61
-75 229 l0 147 -275 0 -275 0 0 -154 c0 -142 -2 -155 -22 -181 -30 -38 -76
-55 -154 -55 -145 0 -172 41 -169 253 l2 137 -127 0 c-110 0 -129 -2 -143 -18z
m1699 -596 c11 -4 14 -39 14 -185 0 -168 -2 -184 -24 -234 -27 -61 -66 -97
-106 -97 -16 0 -54 18 -91 44 -198 135 -260 129 -283 -29 -8 -53 -38 -119 -81
-175 -62 -84 -233 -242 -339 -314 l-39 -26 -333 0 c-321 0 -334 1 -344 20 -15
28 -13 987 2 996 7 5 9 2 4 -7 -5 -10 -3 -9 4 1 10 13 110 15 807 13 437 -1
801 -4 809 -7z m2 -747 c-3 -205 -4 -222 -22 -235 -16 -11 -79 -14 -338 -14
-217 0 -318 3 -318 11 0 5 5 7 10 4 6 -4 20 4 31 17 11 13 17 16 13 8 -5 -10
0 -9 14 4 12 11 22 15 22 10 0 -5 5 -1 11 9 6 9 14 15 20 12 5 -4 9 -1 9 6 0
7 3 9 7 6 3 -4 12 1 20 11 10 11 12 12 8 2 -4 -10 -2 -9 8 2 8 10 17 15 20 11
4 -3 7 -1 7 5 0 7 9 12 19 12 11 0 23 5 27 12 5 7 2 8 -7 3 -11 -6 -11 -5 -3
4 6 7 18 13 27 15 8 1 22 8 31 15 9 7 16 10 16 5 0 -5 7 2 16 14 8 12 19 20
24 17 5 -3 14 4 20 15 6 11 16 19 23 18 7 -2 31 16 55 40 24 24 50 41 60 40 9
-2 16 3 15 10 -2 6 1 12 5 12 4 0 37 27 72 60 36 33 69 60 73 60 4 0 7 -99 5
-221z"/>
<path d="M559 1138 c-1 -2 -3 -60 -4 -130 l-3 -128 129 0 129 0 0 130 0 130
-125 0 c-69 0 -126 -1 -126 -2z"/>
<path d="M997 1133 c-4 -3 -7 -62 -7 -130 l0 -123 130 0 130 0 0 130 0 130
-123 0 c-68 0 -127 -3 -130 -7z"/>
<path d="M1420 1078 c0 -51 2 -59 13 -46 29 37 115 27 205 -24 41 -22 39 -23
36 5 -1 12 -3 46 -3 75 l-1 52 -125 0 -125 0 0 -62z"/>
<path d="M553 622 c-3 -139 -1 -148 34 -146 15 1 72 3 126 3 l97 1 0 125 0
125 -127 0 -128 0 -2 -108z"/>
<path d="M990 605 l0 -125 40 0 c22 0 40 3 40 8 0 4 14 16 30 27 16 11 30 25
30 32 0 7 12 20 26 30 56 40 84 65 79 73 -3 5 -1 11 5 15 5 3 10 19 10 36 l0
29 -130 0 -130 0 0 -125z m240 41 c0 -2 -8 -10 -17 -17 -16 -13 -17 -12 -4 4
13 16 21 21 21 13z"/>
</g>
</svg>
