<svg xmlns="http://www.w3.org/2000/svg" width="17.308" height="15" viewBox="0 0 17.308 15">
  <path fill="#fff" id="camera" d="M8.654,6.058a2.6,2.6,0,0,1,2.6,2.6,2.6,2.6,0,0,1-2.6,2.6,2.6,2.6,0,0,1-2.6-2.6,2.6,2.6,0,0,1,2.6-2.6ZM15,2.308a2.224,2.224,0,0,1,1.632.676,2.221,2.221,0,0,1,.676,1.632v8.077A2.308,2.308,0,0,1,15,15H2.308a2.224,2.224,0,0,1-1.632-.676A2.221,2.221,0,0,1,0,12.692V4.615A2.224,2.224,0,0,1,.676,2.984a2.221,2.221,0,0,1,1.632-.676H4.327l.46-1.226A1.671,1.671,0,0,1,5.413.32,1.61,1.61,0,0,1,6.346,0h4.615a1.605,1.605,0,0,1,.933.32,1.674,1.674,0,0,1,.626.762l.46,1.226ZM8.654,12.692a3.888,3.888,0,0,0,2.853-1.186,3.892,3.892,0,0,0,1.186-2.853A3.887,3.887,0,0,0,11.507,5.8,3.89,3.89,0,0,0,8.654,4.615,3.89,3.89,0,0,0,5.8,5.8,3.887,3.887,0,0,0,4.615,8.654,3.892,3.892,0,0,0,5.8,11.507,3.888,3.888,0,0,0,8.654,12.692Z"/>
</svg>
