<svg xmlns="http://www.w3.org/2000/svg" xmlns:xlink="http://www.w3.org/1999/xlink" width="50" height="50" viewBox="0 0 50 50">
  <defs>
    <linearGradient id="linear-gradient" x1="0.5" x2="0.5" y2="1" gradientUnits="objectBoundingBox">
      <stop offset="0" stop-color="#d34124"/>
      <stop offset="1" stop-color="#084982"/>
    </linearGradient>
  </defs>
  <g id="Group_144" data-name="Group 144" transform="translate(-640 -708)">
    <circle id="Ellipse_32" data-name="Ellipse 32" cx="25" cy="25" r="25" transform="translate(640 708)" fill="url(#linear-gradient)"/>
    <path id="Subtraction_7" data-name="Subtraction 7" d="M-7290.957-4894a1.637,1.637,0,0,1-1.3-.652l-3.1-4.13a1.645,1.645,0,0,0-1.305-.653h-4.077A3.265,3.265,0,0,1-7304-4902.7v-13.044a3.264,3.264,0,0,1,3.261-3.259h19.566a3.264,3.264,0,0,1,3.261,3.259v13.044a3.265,3.265,0,0,1-3.261,3.261h-4.077a1.638,1.638,0,0,0-1.3.653l-3.1,4.13A1.638,1.638,0,0,1-7290.957-4894Zm.446-20a7.475,7.475,0,0,0-3.883,1.129,11.389,11.389,0,0,0-3.428,3.314.991.991,0,0,0-.02,1.109,10.414,10.414,0,0,0,3.07,3.146,7.745,7.745,0,0,0,4.26,1.3,7.892,7.892,0,0,0,4.256-1.3,10.441,10.441,0,0,0,3.1-3.153,1.011,1.011,0,0,0,0-1.087,10.641,10.641,0,0,0-3.1-3.142A7.855,7.855,0,0,0-7290.511-4914Zm.011,8a3,3,0,0,1-3-3,3,3,0,0,1,3-3,3,3,0,0,1,3,3A3.011,3.011,0,0,1-7290.5-4906Zm0-5a2,2,0,0,0-2,2,2,2,0,0,0,2,2,2,2,0,0,0,2-2A2,2,0,0,0-7290.5-4911Z" transform="translate(7957 5642)" fill="#fff"/>
  </g>
</svg>
