<svg id="clock" xmlns="http://www.w3.org/2000/svg" width="13.5" height="13.5" viewBox="0 0 13.5 13.5">
  <path id="Path_77" data-name="Path 77" d="M6.75,12.656A5.906,5.906,0,1,0,.844,6.75,5.906,5.906,0,0,0,6.75,12.656ZM13.5,6.75A6.75,6.75,0,1,1,6.75,0,6.75,6.75,0,0,1,13.5,6.75Z" fill="#084982" fill-rule="evenodd"/>
  <path id="Path_78" data-name="Path 78" d="M10.922,4.5a.422.422,0,0,1,.422.422v4.4l2.74,1.566a.422.422,0,0,1-.418.732L10.713,9.929a.422.422,0,0,1-.213-.366V4.922A.422.422,0,0,1,10.922,4.5Z" transform="translate(-4.594 -1.969)" fill="#084982" fill-rule="evenodd"/>
</svg>
