<?xml version="1.0" encoding="utf-8"?>
<svg width="85" height="85" viewBox="0 0 41.512 42.797" xmlns="http://www.w3.org/2000/svg">
  <defs>
    <filter id="Rectangle_114" x="0" y="0" width="85" height="85" filterUnits="userSpaceOnUse">
      <feOffset dy="5" input="SourceAlpha"/>
      <feGaussianBlur stdDeviation="7.5" result="blur"/>
      <feFlood flood-opacity="0.102"/>
      <feComposite operator="in" in2="blur"/>
      <feComposite in="SourceGraphic"/>
    </filter>
  </defs>

  <linearGradient id="MyGradient">
      <stop offset="5%" stop-color="#0756ce" />
      <stop offset="95%" stop-color="#d04329" />
	</linearGradient>



  <g id="Group_145" data-name="Group 145" transform="matrix(1, 0, 0, 1, -1164.540649, -253.808136)">
    <g transform="matrix(1, 0, 0, 1, 1142.5, 237.5)" filter="url(#Rectangle_114)">
      <g id="Rectangle_114-2" data-name="Rectangle 114" transform="translate(22.5 17.5)" fill="none" stroke="#CC4E57" stroke-width="1">
        <rect width="40" height="40" rx="20" stroke="none"/>
        <rect x="0.5" y="0.5" width="39" height="39" rx="19.5" fill="none"/>
      </g>
    </g>
    <path id="delete" d="M10.844,2.778H.752a.633.633,0,0,1-.507-.268A1.01,1.01,0,0,1,.031,1.86,1.059,1.059,0,0,1,.239,1.2.622.622,0,0,1,.752.927h3.6A1.046,1.046,0,0,1,4.565.276.624.624,0,0,1,5.077,0H6.519a.624.624,0,0,1,.512.275A1.046,1.046,0,0,1,7.24.927h3.6a.629.629,0,0,1,.507.275,1.039,1.039,0,0,1,.214.658,1.009,1.009,0,0,1-.214.651.635.635,0,0,1-.507.268Zm0,10.186a2.068,2.068,0,0,1-.422,1.31,1.255,1.255,0,0,1-1.02.543H2.193a1.257,1.257,0,0,1-1.02-.543,2.065,2.065,0,0,1-.422-1.31V3.7H10.844v9.259ZM3.635,6.482a1.028,1.028,0,0,0-.214-.651.633.633,0,0,0-.512-.275.618.618,0,0,0-.507.275,1.049,1.049,0,0,0-.208.651v5.556A1.039,1.039,0,0,0,2.4,12.7a.623.623,0,0,0,.507.268.639.639,0,0,0,.512-.268,1.019,1.019,0,0,0,.214-.658V6.482Zm2.883,0A1.028,1.028,0,0,0,6.3,5.831a.633.633,0,0,0-.512-.275.618.618,0,0,0-.507.275,1.049,1.049,0,0,0-.208.651v5.556a1.039,1.039,0,0,0,.208.658.623.623,0,0,0,.507.268A.639.639,0,0,0,6.3,12.7a1.019,1.019,0,0,0,.214-.658V6.482Zm2.883,0a1.028,1.028,0,0,0-.214-.651.633.633,0,0,0-.512-.275.618.618,0,0,0-.507.275,1.049,1.049,0,0,0-.208.651v5.556a1.039,1.039,0,0,0,.208.658.623.623,0,0,0,.507.268.639.639,0,0,0,.512-.268,1.019,1.019,0,0,0,.214-.658V6.482Z" transform="translate(1178.969 267.999)" fill="#CC4E57"/>
  </g>
</svg>