<?xml version="1.0" encoding="utf-8"?>
<svg viewBox="21.942 16.703 52.186 48.134" xmlns="http://www.w3.org/2000/svg">
  <defs>
    <filter id="Rectangle_116" x="0" y="0" filterUnits="userSpaceOnUse">
      <feOffset dy="5" input="SourceAlpha"/>
      <feGaussianBlur stdDeviation="7.5" result="blur"/>
      <feFlood flood-opacity="0.102"/>
      <feComposite operator="in" in2="blur"/>
      <feComposite in="SourceGraphic"/>
    </filter>
  </defs>



    <linearGradient id="MyGradient">
      <stop offset="5%" stop-color="#0756ce" />
      <stop offset="95%" stop-color="#d04329" />
	</linearGradient>


  
  <g id="Group_146" data-name="Group 146" transform="matrix(1, 0, 0, 1, -1092.835815, -238.059692)">
    <g transform="matrix(1, 0, 0, 1, 1092.5, 237.5)" filter="url(#Rectangle_116)">
      <g id="Rectangle_116-2" data-name="edit" transform="translate(22.5 17.5)" fill="none" stroke="#00A44C" stroke-width="1">
        <rect width="40" height="40" rx="20" stroke="none"/>
        <rect x="0.5" y="0.5" width="39" height="39" rx="19.5" fill="none"/>
      </g>
    </g>
    <path id="edit" d="M0,11.728l9.1-9.1L12.191,5.71l-9.1,9.1H0Zm14.584-8.41-1.5,1.5L9.993,1.736l1.5-1.5a.838.838,0,0,1,1.157,0l1.929,1.929a.785.785,0,0,1,.232.579.785.785,0,0,1-.232.579Z" transform="translate(1128 268)" fill="#00A44C"/>
  </g>
</svg>