<svg xmlns="http://www.w3.org/2000/svg" xmlns:xlink="http://www.w3.org/1999/xlink" version="1.1" width="256" height="256" viewBox="0 0 256 256" xml:space="preserve">
<desc>Created with Fabric.js 1.7.22</desc>
<defs>
</defs>


 <linearGradient id="MyGradient1">
          <stop offset="5%" stop-color="#0756ce" />
          <stop offset="95%" stop-color="#3152AB" />
</linearGradient>

 <linearGradient id="MyGradient2">
          <stop offset="5%" stop-color="#3152AB" />
          <stop offset="95%" stop-color="#664D80" />
</linearGradient>

 <linearGradient id="MyGradient3">
          <stop offset="5%" stop-color="#664D80" />
          <stop offset="95%" stop-color="#A1474f" />
</linearGradient>

 <linearGradient id="MyGradient4">
          <stop offset="5%" stop-color="#A1472f" />
          <stop offset="95%" stop-color="#d04329" />
</linearGradient>

<g transform="translate(128 128) scale(0.72 0.72)" style="">
	<g		 style="stroke: none; stroke-width: 0; stroke-dasharray: none; stroke-linecap: butt; stroke-linejoin: miter; stroke-miterlimit: 10; fill: none; fill-rule: nonzero; opacity: 1;" transform="translate(-175.05 -175.05000000000004) scale(3.89 3.89)" >
	<!-- big start hands -->
	<path  style=" fill: url(#MyGradient3); stroke: none; stroke-width: 1; stroke-dasharray: none; stroke-linecap: butt; stroke-linejoin: miter; stroke-miterlimit: 10; fill-rule: nonzero; opacity: 1;" d="M 5.789 45.506 H 4.488 c -0.552 0 -1 -0.448 -1 -1 s 0.448 -1 1 -1 h 1.301 c 0.552 0 1 0.448 1 1 S 6.341 45.506 5.789 45.506 z" transform=" matrix(1 0 0 1 0 0) " stroke-linecap="round" />
	<path  style=" fill: url(#MyGradient3); stroke: none; stroke-width: 1; stroke-dasharray: none; stroke-linecap: butt; stroke-linejoin: miter; stroke-miterlimit: 10; fill-rule: nonzero; opacity: 1;" d="M 12.307 45.506 h -1.301 c -0.552 0 -1 -0.448 -1 -1 s 0.448 -1 1 -1 h 1.301 c 0.552 0 1 0.448 1 1 S 12.859 45.506 12.307 45.506 z" transform=" matrix(1 0 0 1 0 0) " stroke-linecap="round" />
	<path  style=" fill: url(#MyGradient3); stroke: none; stroke-width: 1; stroke-dasharray: none; stroke-linecap: butt; stroke-linejoin: miter; stroke-miterlimit: 10; fill-rule: nonzero; opacity: 1;" d="M 8.398 42.897 c -0.552 0 -1 -0.448 -1 -1 v -1.301 c 0 -0.552 0.448 -1 1 -1 s 1 0.448 1 1 v 1.301 C 9.398 42.45 8.95 42.897 8.398 42.897 z" transform=" matrix(1 0 0 1 0 0) " stroke-linecap="round" />
	<path  style=" fill: url(#MyGradient3); stroke: none; stroke-width: 1; stroke-dasharray: none; stroke-linecap: butt; stroke-linejoin: miter; stroke-miterlimit: 10; fill-rule: nonzero; opacity: 1;" d="M 8.398 49.416 c -0.552 0 -1 -0.447 -1 -1 v -1.301 c 0 -0.553 0.448 -1 1 -1 s 1 0.447 1 1 v 1.301 C 9.398 48.969 8.95 49.416 8.398 49.416 z" transform=" matrix(1 0 0 1 0 0) " stroke-linecap="round" />
	<path  style=" fill: url(#MyGradient3); stroke: none; stroke-width: 1; stroke-dasharray: none; stroke-linecap: butt; stroke-linejoin: miter; stroke-miterlimit: 10; fill-rule: nonzero; opacity: 1;" d="M 55.206 14.697 h -1.301 c -0.553 0 -1 -0.448 -1 -1 s 0.447 -1 1 -1 h 1.301 c 0.553 0 1 0.448 1 1 S 55.759 14.697 55.206 14.697 z" transform=" matrix(1 0 0 1 0 0) " stroke-linecap="round" />
	<path  style=" fill: url(#MyGradient3); stroke: none; stroke-width: 1; stroke-dasharray: none; stroke-linecap: butt; stroke-linejoin: miter; stroke-miterlimit: 10; fill-rule: nonzero; opacity: 1;" d="M 61.725 14.697 h -1.301 c -0.553 0 -1 -0.448 -1 -1 s 0.447 -1 1 -1 h 1.301 c 0.553 0 1 0.448 1 1 S 62.277 14.697 61.725 14.697 z" transform=" matrix(1 0 0 1 0 0) " stroke-linecap="round" />
	<path  style=" fill: url(#MyGradient3); stroke: none; stroke-width: 1; stroke-dasharray: none; stroke-linecap: butt; stroke-linejoin: miter; stroke-miterlimit: 10; fill-rule: nonzero; opacity: 1;" d="M 57.814 12.088 c -0.553 0 -1 -0.448 -1 -1 V 9.787 c 0 -0.552 0.447 -1 1 -1 s 1 0.448 1 1 v 1.301 C 58.814 11.64 58.367 12.088 57.814 12.088 z" transform=" matrix(1 0 0 1 0 0) " stroke-linecap="round" />
	<path  style=" fill: url(#MyGradient3); stroke: none; stroke-width: 1; stroke-dasharray: none; stroke-linecap: butt; stroke-linejoin: miter; stroke-miterlimit: 10; fill-rule: nonzero; opacity: 1;" d="M 57.814 18.606 c -0.553 0 -1 -0.448 -1 -1 v -1.301 c 0 -0.552 0.447 -1 1 -1 s 1 0.448 1 1 v 1.301 C 58.814 18.159 58.367 18.606 57.814 18.606 z" transform=" matrix(1 0 0 1 0 0) " stroke-linecap="round" />
	<!-- moons -->
	<path  style=" fill: url(#MyGradient3); stroke: none; stroke-width: 1; stroke-dasharray: none; stroke-linecap: butt; stroke-linejoin: miter; stroke-miterlimit: 10; fill-rule: nonzero; opacity: 1;" d="M 77.173 40.952 c -3.223 0 -5.844 -2.622 -5.844 -5.844 s 2.621 -5.844 5.844 -5.844 s 5.844 2.622 5.844 5.844 S 80.396 40.952 77.173 40.952 z M 77.173 31.264 c -2.119 0 -3.844 1.724 -3.844 3.844 s 1.725 3.844 3.844 3.844 s 3.844 -1.724 3.844 -3.844 S 79.292 31.264 77.173 31.264 z" transform=" matrix(1 0 0 1 0 0) " stroke-linecap="round" />
	<path  style=" fill: url(#MyGradient3); stroke: none; stroke-width: 1; stroke-dasharray: none; stroke-linecap: butt; stroke-linejoin: miter; stroke-miterlimit: 10; fill-rule: nonzero; opacity: 1;" d="M 22.148 16.915 c -3.222 0 -5.844 -2.622 -5.844 -5.844 s 2.622 -5.844 5.844 -5.844 s 5.844 2.622 5.844 5.844 S 25.371 16.915 22.148 16.915 z M 22.148 7.227 c -2.12 0 -3.844 1.724 -3.844 3.844 s 1.724 3.844 3.844 3.844 s 3.844 -1.724 3.844 -3.844 S 24.268 7.227 22.148 7.227 z" transform=" matrix(1 0 0 1 0 0) " stroke-linecap="round" />
	<!-- dot stars -->
	<path  style=" fill: url(#MyGradient4); stroke: none; stroke-width: 1; stroke-dasharray: none; stroke-linecap: butt; stroke-linejoin: miter; stroke-miterlimit: 10; fill-rule: nonzero; opacity: 1;" d="M 78.689 7.1 c -0.06 0 -0.13 0 -0.189 -0.02 c -0.07 -0.01 -0.13 -0.03 -0.19 -0.05 c -0.06 -0.03 -0.12 -0.06 -0.17 -0.09 C 78.08 6.9 78.03 6.86 77.99 6.81 c -0.051 -0.04 -0.091 -0.1 -0.131 -0.15 C 77.83 6.6 77.79 6.55 77.77 6.49 c -0.029 -0.06 -0.04 -0.13 -0.06 -0.19 c -0.01 -0.07 -0.021 -0.13 -0.021 -0.2 c 0 -0.26 0.11 -0.52 0.301 -0.7 c 0.359 -0.37 1.04 -0.38 1.409 0 c 0.19 0.18 0.29 0.44 0.29 0.7 c 0 0.07 0 0.13 -0.02 0.2 c -0.01 0.06 -0.03 0.13 -0.05 0.19 C 79.59 6.55 79.56 6.6 79.52 6.66 c -0.029 0.05 -0.069 0.11 -0.12 0.15 C 79.21 7 78.96 7.1 78.689 7.1 z" transform=" matrix(1 0 0 1 0 0) " stroke-linecap="round" />
	<path  style=" fill: url(#MyGradient4); stroke: none; stroke-width: 1; stroke-dasharray: none; stroke-linecap: butt; stroke-linejoin: miter; stroke-miterlimit: 10; fill-rule: nonzero; opacity: 1;" d="M 2.85 27.64 c -0.27 0 -0.52 -0.11 -0.71 -0.3 c -0.19 -0.18 -0.29 -0.44 -0.29 -0.7 c 0 -0.27 0.1 -0.52 0.29 -0.71 c 0.37 -0.37 1.04 -0.37 1.42 0 c 0.18 0.18 0.29 0.44 0.29 0.71 c 0 0.26 -0.11 0.52 -0.29 0.7 C 3.37 27.53 3.11 27.64 2.85 27.64 z" transform=" matrix(1 0 0 1 0 0) " stroke-linecap="round" />
	<path  style=" fill: url(#MyGradient4); stroke: none; stroke-width: 1; stroke-dasharray: none; stroke-linecap: butt; stroke-linejoin: miter; stroke-miterlimit: 10; fill-rule: nonzero; opacity: 1;" d="M 8.3 68.52 c -0.27 0 -0.52 -0.1 -0.71 -0.29 C 7.41 68.04 7.3 67.79 7.3 67.52 c 0 -0.13 0.03 -0.26 0.08 -0.38 c 0.05 -0.12 0.12 -0.229 0.21 -0.33 c 0.1 -0.09 0.21 -0.16 0.33 -0.21 c 0.37 -0.16 0.81 -0.069 1.09 0.21 c 0.09 0.101 0.16 0.21 0.22 0.33 c 0.05 0.12 0.07 0.25 0.07 0.38 c 0 0.271 -0.1 0.521 -0.29 0.71 c -0.09 0.09 -0.2 0.17 -0.32 0.221 C 8.56 68.5 8.44 68.52 8.3 68.52 z" transform=" matrix(1 0 0 1 0 0) " stroke-linecap="round" />
	<path  style=" fill: url(#MyGradient4); stroke: none; stroke-width: 1; stroke-dasharray: none; stroke-linecap: butt; stroke-linejoin: miter; stroke-miterlimit: 10; fill-rule: nonzero; opacity: 1;" d="M 81.3 59.52 c -0.13 0 -0.26 -0.029 -0.38 -0.08 c -0.12 -0.05 -0.23 -0.12 -0.32 -0.21 c -0.1 -0.1 -0.17 -0.21 -0.22 -0.33 c -0.05 -0.119 -0.08 -0.25 -0.08 -0.38 s 0.03 -0.26 0.08 -0.38 s 0.12 -0.229 0.22 -0.33 c 0.36 -0.37 1.03 -0.37 1.41 0 c 0.09 0.101 0.17 0.21 0.22 0.33 c 0.051 0.12 0.07 0.25 0.07 0.38 c 0 0.271 -0.1 0.521 -0.29 0.71 c -0.09 0.09 -0.2 0.16 -0.32 0.21 C 81.56 59.49 81.439 59.52 81.3 59.52 z" transform=" matrix(1 0 0 1 0 0) " stroke-linecap="round" />
	<!-- tyres outer -->
	<path  style=" fill: url(#MyGradient4); stroke: none; stroke-width: 1; stroke-dasharray: none; stroke-linecap: butt; stroke-linejoin: miter; stroke-miterlimit: 10; fill-rule: nonzero; opacity: 1;" d="M 25 77.169 c -3.033 0 -5.5 -2.468 -5.5 -5.5 s 2.467 -5.5 5.5 -5.5 s 5.5 2.468 5.5 5.5 S 28.033 77.169 25 77.169 z M 25 68.169 c -1.93 0 -3.5 1.57 -3.5 3.5 s 1.57 3.5 3.5 3.5 s 3.5 -1.57 3.5 -3.5 S 26.93 68.169 25 68.169 z" transform=" matrix(1 0 0 1 0 0) " stroke-linecap="round" />
	<path  style=" fill: url(#MyGradient4); stroke: none; stroke-width: 1; stroke-dasharray: none; stroke-linecap: butt; stroke-linejoin: miter; stroke-miterlimit: 10; fill-rule: nonzero; opacity: 1;" d="M 65 77.169 c -3.032 0 -5.5 -2.468 -5.5 -5.5 s 2.468 -5.5 5.5 -5.5 s 5.5 2.468 5.5 5.5 S 68.032 77.169 65 77.169 z M 65 68.169 c -1.93 0 -3.5 1.57 -3.5 3.5 s 1.57 3.5 3.5 3.5 s 3.5 -1.57 3.5 -3.5 S 66.93 68.169 65 68.169 z" transform=" matrix(1 0 0 1 0 0) " stroke-linecap="round" />
	<path  style=" fill: url(#MyGradient4); stroke: none; stroke-width: 1; stroke-dasharray: none; stroke-linecap: butt; stroke-linejoin: miter; stroke-miterlimit: 10; fill-rule: nonzero; opacity: 1;" d="M 45 77.169 c -3.033 0 -5.5 -2.468 -5.5 -5.5 s 2.467 -5.5 5.5 -5.5 c 3.032 0 5.5 2.468 5.5 5.5 S 48.032 77.169 45 77.169 z M 45 68.169 c -1.93 0 -3.5 1.57 -3.5 3.5 s 1.57 3.5 3.5 3.5 s 3.5 -1.57 3.5 -3.5 S 46.93 68.169 45 68.169 z" transform=" matrix(1 0 0 1 0 0) " stroke-linecap="round" />
	<!-- van outer -->
	<path  style=" fill: url(#MyGradient4); stroke: none; stroke-width: 1; stroke-dasharray: none; stroke-linecap: butt; stroke-linejoin: miter; stroke-miterlimit: 10; fill-rule: nonzero; opacity: 1;" d="M 65 64.006 c -0.553 0 -1 -0.447 -1 -1 v -1.159 c 0 -3.921 -3.19 -7.111 -7.111 -7.111 H 26 v 8.271 c 0 0.553 -0.448 1 -1 1 s -1 -0.447 -1 -1 v -9.271 c 0 -0.553 0.448 -1 1 -1 h 31.889 c 5.024 0 9.111 4.087 9.111 9.111 v 1.159 C 66 63.559 65.553 64.006 65 64.006 z" transform=" matrix(1 0 0 1 0 0) " stroke-linecap="round" />
	<!-- road -->
	<path  style=" fill: url(#MyGradient2); stroke: none; stroke-width: 1; stroke-dasharray: none; stroke-linecap: butt; stroke-linejoin: miter; stroke-miterlimit: 10; fill-rule: nonzero; opacity: 1;" d="M 35.903 72.669 h -2.244 c -0.552 0 -1 -0.447 -1 -1 s 0.448 -1 1 -1 h 2.244 c 0.552 0 1 0.447 1 1 S 36.455 72.669 35.903 72.669 z" transform=" matrix(1 0 0 1 0 0) " stroke-linecap="round" />
	<path  style=" fill: url(#MyGradient2); stroke: none; stroke-width: 1; stroke-dasharray: none; stroke-linecap: butt; stroke-linejoin: miter; stroke-miterlimit: 10; fill-rule: nonzero; opacity: 1;" d="M 1 84.896 c -0.271 0 -0.541 -0.109 -0.738 -0.324 c -0.373 -0.407 -0.345 -1.04 0.062 -1.413 c 3.505 -3.211 8.932 -5.99 15.694 -8.037 c 0.524 -0.159 1.086 0.139 1.247 0.667 c 0.16 0.529 -0.139 1.087 -0.667 1.247 c -6.477 1.961 -11.637 4.588 -14.923 7.598 C 1.483 84.81 1.242 84.896 1 84.896 z" transform=" matrix(1 0 0 1 0 0) " stroke-linecap="round" />
	<path  style=" fill: url(#MyGradient2); stroke: none; stroke-width: 1; stroke-dasharray: none; stroke-linecap: butt; stroke-linejoin: miter; stroke-miterlimit: 10; fill-rule: nonzero; opacity: 1;" d="M 89 84.896 c -0.241 0 -0.483 -0.087 -0.676 -0.263 c -3.286 -3.01 -8.446 -5.637 -14.923 -7.598 c -0.528 -0.16 -0.827 -0.718 -0.667 -1.247 c 0.16 -0.527 0.718 -0.827 1.247 -0.667 c 6.761 2.047 12.188 4.826 15.694 8.037 c 0.407 0.373 0.435 1.006 0.062 1.413 C 89.54 84.787 89.271 84.896 89 84.896 z" transform=" matrix(1 0 0 1 0 0) " stroke-linecap="round" />
	<path  style=" fill: url(#MyGradient2); stroke: none; stroke-width: 1; stroke-dasharray: none; stroke-linecap: butt; stroke-linejoin: miter; stroke-miterlimit: 10; fill-rule: nonzero; opacity: 1;" d="M 55.903 72.669 h -2.244 c -0.553 0 -1 -0.447 -1 -1 s 0.447 -1 1 -1 h 2.244 c 0.553 0 1 0.447 1 1 S 56.456 72.669 55.903 72.669 z" transform=" matrix(1 0 0 1 0 0) " stroke-linecap="round" />
	<!-- van insides -->
	<path  style=" fill: url(#MyGradient2); stroke: none; stroke-width: 1; stroke-dasharray: none; stroke-linecap: butt; stroke-linejoin: miter; stroke-miterlimit: 10; fill-rule: nonzero; opacity: 1;" d="M 44.934 61.139 H 30.26 c -0.552 0 -1 -0.447 -1 -1 s 0.448 -1 1 -1 h 14.674 c 0.552 0 1 0.447 1 1 S 45.486 61.139 44.934 61.139 z" transform=" matrix(1 0 0 1 0 0) " stroke-linecap="round" />
	<path  style=" fill: url(#MyGradient2); stroke: none; stroke-width: 1; stroke-dasharray: none; stroke-linecap: butt; stroke-linejoin: miter; stroke-miterlimit: 10; fill-rule: nonzero; opacity: 1;" d="M 58.053 61.139 h -6.78 c -0.553 0 -1 -0.447 -1 -1 s 0.447 -1 1 -1 h 6.78 c 0.553 0 1 0.447 1 1 S 58.605 61.139 58.053 61.139 z" transform=" matrix(1 0 0 1 0 0) " stroke-linecap="round" />
	<!-- Van tyre dots -->
	<path  style=" fill: rgb(185,16,152); stroke: none; stroke-width: 1; stroke-dasharray: none; stroke-linecap: butt; stroke-linejoin: miter; stroke-miterlimit: 10; fill-rule: nonzero; opacity: 1;" d="M 65 72.67 c -0.13 0 -0.26 -0.03 -0.38 -0.08 s -0.23 -0.12 -0.33 -0.21 C 64.1 72.189 64 71.93 64 71.67 c 0 -0.07 0.01 -0.13 0.02 -0.2 c 0.011 -0.06 0.03 -0.12 0.061 -0.18 c 0.02 -0.061 0.05 -0.12 0.09 -0.181 c 0.03 -0.05 0.08 -0.1 0.12 -0.149 c 0.37 -0.37 1.05 -0.37 1.42 0 c 0.04 0.05 0.08 0.1 0.12 0.149 c 0.04 0.061 0.069 0.12 0.09 0.181 c 0.03 0.06 0.05 0.12 0.06 0.18 C 65.99 71.54 66 71.6 66 71.67 c 0 0.13 -0.03 0.26 -0.08 0.38 s -0.12 0.23 -0.21 0.33 C 65.52 72.56 65.27 72.67 65 72.67 z" transform=" matrix(1 0 0 1 0 0) " stroke-linecap="round" />
	<path  style=" fill: rgb(185,16,152); stroke: none; stroke-width: 1; stroke-dasharray: none; stroke-linecap: butt; stroke-linejoin: miter; stroke-miterlimit: 10; fill-rule: nonzero; opacity: 1;" d="M 45 72.67 c -0.13 0 -0.26 -0.03 -0.38 -0.08 c -0.12 -0.05 -0.23 -0.12 -0.33 -0.21 C 44.1 72.189 44 71.93 44 71.67 c 0 -0.07 0.01 -0.13 0.02 -0.2 c 0.01 -0.06 0.03 -0.12 0.06 -0.18 c 0.02 -0.061 0.05 -0.12 0.09 -0.181 c 0.04 -0.05 0.08 -0.1 0.12 -0.149 c 0.37 -0.37 1.05 -0.37 1.42 0 c 0.04 0.05 0.08 0.1 0.12 0.149 c 0.04 0.061 0.07 0.12 0.09 0.181 c 0.03 0.06 0.05 0.12 0.06 0.18 c 0.01 0.07 0.02 0.13 0.02 0.2 c 0 0.13 -0.03 0.26 -0.08 0.38 c -0.05 0.12 -0.12 0.23 -0.21 0.33 C 45.52 72.56 45.27 72.67 45 72.67 z" transform=" matrix(1 0 0 1 0 0) " stroke-linecap="round" />
	<path  style=" fill: rgb(185,16,152); stroke: none; stroke-width: 1; stroke-dasharray: none; stroke-linecap: butt; stroke-linejoin: miter; stroke-miterlimit: 10; fill-rule: nonzero; opacity: 1;" d="M 25 72.67 c -0.27 0 -0.52 -0.11 -0.71 -0.29 c -0.09 -0.1 -0.16 -0.21 -0.21 -0.33 C 24.03 71.93 24 71.8 24 71.67 c 0 -0.07 0.01 -0.13 0.02 -0.2 c 0.01 -0.06 0.03 -0.12 0.06 -0.18 c 0.02 -0.061 0.05 -0.12 0.09 -0.181 c 0.03 -0.05 0.08 -0.1 0.12 -0.149 c 0.1 -0.09 0.2 -0.16 0.33 -0.21 c 0.37 -0.16 0.81 -0.07 1.09 0.21 c 0.04 0.05 0.09 0.1 0.12 0.149 c 0.04 0.061 0.07 0.12 0.09 0.181 c 0.03 0.06 0.05 0.12 0.06 0.18 c 0.01 0.07 0.02 0.13 0.02 0.2 c 0 0.26 -0.1 0.52 -0.29 0.71 c -0.1 0.09 -0.21 0.16 -0.33 0.21 S 25.13 72.67 25 72.67 z" transform=" matrix(1 0 0 1 0 0) " stroke-linecap="round" />
	<!-- antenna -->
	<path  style=" fill: url(#MyGradient2); stroke: none; stroke-width: 1; stroke-dasharray: none; stroke-linecap: butt; stroke-linejoin: miter; stroke-miterlimit: 10; fill-rule: nonzero; opacity: 1;" d="M 35.218 38.646 c -0.256 0 -0.512 -0.098 -0.707 -0.293 c -0.391 -0.391 -0.391 -1.023 0 -1.414 l 6.112 -6.112 c 0.391 -0.391 1.023 -0.391 1.414 0 s 0.391 1.023 0 1.414 l -6.112 6.112 C 35.73 38.548 35.474 38.646 35.218 38.646 z" transform=" matrix(1 0 0 1 0 0) " stroke-linecap="round" />
	<path  style=" fill: url(#MyGradient2); stroke: none; stroke-width: 1; stroke-dasharray: none; stroke-linecap: butt; stroke-linejoin: miter; stroke-miterlimit: 10; fill-rule: nonzero; opacity: 1;" d="M 39.011 46.868 c -3.342 0 -6.661 -1.295 -9.19 -3.825 c -4.526 -4.526 -5.104 -11.579 -1.373 -16.77 c 0.171 -0.238 0.438 -0.39 0.731 -0.413 c 0.292 -0.025 0.581 0.082 0.788 0.29 l 5.499 5.499 c 0.391 0.391 0.391 1.023 0 1.414 s -1.023 0.391 -1.414 0 l -4.621 -4.622 c -2.423 4.264 -1.741 9.642 1.805 13.188 c 3.545 3.544 8.923 4.227 13.188 1.805 L 39.8 38.813 c -0.391 -0.39 -0.391 -1.023 0 -1.414 s 1.023 -0.391 1.414 0 l 5.5 5.499 c 0.208 0.208 0.313 0.496 0.29 0.788 c -0.024 0.292 -0.175 0.56 -0.414 0.731 C 44.3 46.062 41.648 46.868 39.011 46.868 z" transform=" matrix(1 0 0 1 0 0) " stroke-linecap="round" />
	<path  style=" fill: url(#MyGradient2); stroke: none; stroke-width: 1; stroke-dasharray: none; stroke-linecap: butt; stroke-linejoin: miter; stroke-miterlimit: 10; fill-rule: nonzero; opacity: 1;" d="M 30.527 50.252 c -0.552 0 -1 -0.447 -1 -1 v -6.916 c 0 -0.552 0.448 -1 1 -1 s 1 0.448 1 1 v 6.916 C 31.527 49.805 31.08 50.252 30.527 50.252 z" transform=" matrix(1 0 0 1 0 0) " stroke-linecap="round" />
	<path  style=" fill: url(#MyGradient2); stroke: none; stroke-width: 1; stroke-dasharray: none; stroke-linecap: butt; stroke-linejoin: miter; stroke-miterlimit: 10; fill-rule: nonzero; opacity: 1;" d="M 54.781 50.252 c -0.553 0 -1 -0.447 -1 -1 V 32.505 c 0 -0.552 0.447 -1 1 -1 s 1 0.448 1 1 v 16.747 C 55.781 49.805 55.334 50.252 54.781 50.252 z" transform=" matrix(1 0 0 1 0 0) " stroke-linecap="round" />
</g>
</g>
</svg>