<?xml version="1.0" encoding="utf-8"?>
<svg width="512px" height="512px" viewBox="0 0 418.53 419.721" xmlns="http://www.w3.org/2000/svg">
  <path fill="#fff" d="M 208.967 2.753 C 94.277 2.753 0.967 96.063 0.967 210.753 C 0.967 325.443 94.277 418.753 208.967 418.753 C 323.657 418.753 416.967 325.443 416.967 210.753 C 416.967 96.063 323.657 2.753 208.967 2.753 Z M 240.967 306.753 L 176.967 306.753 C 164.651 306.753 156.953 293.42 163.111 282.753 C 165.969 277.803 171.251 274.753 176.967 274.753 L 240.967 274.753 C 253.284 274.753 260.982 288.087 254.824 298.753 C 251.966 303.704 246.684 306.753 240.967 306.753 Z M 288.967 242.753 L 128.967 242.753 C 116.651 242.753 108.953 229.42 115.111 218.753 C 117.969 213.803 123.251 210.753 128.967 210.753 L 288.967 210.753 C 301.284 210.753 308.982 224.087 302.824 234.753 C 299.966 239.704 294.684 242.753 288.967 242.753 Z M 320.967 178.753 L 96.967 178.753 C 84.651 178.753 76.953 165.42 83.111 154.753 C 85.969 149.803 91.251 146.753 96.967 146.753 L 320.967 146.753 C 333.284 146.753 340.982 160.087 334.824 170.753 C 331.966 175.704 326.684 178.753 320.967 178.753 Z"/>
</svg>