<svg xmlns="http://www.w3.org/2000/svg" width="15.021" height="15" viewBox="0 0 15.021 15">
  <path id="Union_48" data-name="Union 48" d="M0,15V11.786L5.566,6.219a4.741,4.741,0,0,1-.209-1.4A4.838,4.838,0,0,1,14.116,2,4.7,4.7,0,0,1,15,5.217,4.821,4.821,0,0,1,8.781,9.434L3.214,15ZM8.443,1.478A3.825,3.825,0,0,0,6.621,6l.155.509-.455.455L1.071,12.23v1.7h1.7l1.184-1.184-.739-.739.755-.755.739.739.852-.852L4.821,10.4l.755-.755.755.74,1.7-1.7.455-.455.616.188a3.736,3.736,0,0,0,4.238-1.575,3.583,3.583,0,0,0,.584-2.143A3.75,3.75,0,0,0,8.443,1.478Zm1.2,2.807a1.071,1.071,0,1,1,1.071,1.071A1.071,1.071,0,0,1,9.643,4.286Z" transform="translate(0 0)"/>
</svg>
